<svg xmlns="http://www.w3.org/2000/svg" width="124" height="50.625" viewBox="0 0 124 50.625">
  <g id="Pfizer_Logo_Color_RGB" transform="translate(62 25.313)">
    <g id="Pfizer_Logo_Color_RGB-2" data-name="Pfizer_Logo_Color_RGB" transform="translate(-62 -25.313)">
      <path id="Path_472" data-name="Path 472" d="M6.2,181.008a3.447,3.447,0,0,1,.2-.479c1.951-3.943,10.292-5.572,22.246-4.125l2.406-8.845c-12.3-1.562-21.278.2-22.775,5.795Z" transform="translate(-5.878 -153.629)" fill="#0095ff"/>
      <path id="Path_473" data-name="Path 473" d="M273.45,224.9c-.05.132-.1.265-.157.4-1.868,4-10.242,5.654-22.287,4.2l-2.406,8.845c12.3,1.562,21.278-.2,22.775-5.795Z" transform="translate(-228.239 -206.73)" fill="#0000c9"/>
      <path id="Path_474" data-name="Path 474" d="M101.4,13.945c18.154,1.306,36.7,10.284,34.943,16.988l1.629-5.985a15.652,15.652,0,0,0,.777-3.646c0-6.828-17.9-15.161-34.943-16.2Z" transform="translate(-93.208 -5.1)" fill="#0095ff"/>
      <g id="Group_4" data-name="Group 4" transform="translate(0 10.771)">
        <path id="Path_475" data-name="Path 475" d="M39.641,260.58c-18.154-1.3-36.7-10.275-34.935-16.98l-1.629,5.985a15.652,15.652,0,0,0-.777,3.646c0,6.828,17.9,15.161,34.943,16.2Z" transform="translate(-2.3 -234.655)" fill="#0000c9"/>
        <path id="Path_476" data-name="Path 476" d="M1168.954,288.126c-2.3.033-3.522-1.43-3.522-4.026,0-.174.008-.339.017-.5h9.027a8.486,8.486,0,0,0,.3-2.116c0-3.166-1.943-5.58-5.911-5.58-4.059,0-7.663,4-7.663,8.2,0,4.026,2.629,6.473,7.01,6.473a8.806,8.806,0,0,0,5.192-1.67l-.835-2.091a6.141,6.141,0,0,1-3.612,1.314Zm-.025-9.961c1.339,0,2.025.868,2.025,2.778a4.577,4.577,0,0,1-.033.57h-5.15c.562-2.017,1.761-3.348,3.158-3.348Z" transform="translate(-1065.398 -264.285)" fill="#0000c9"/>
        <path id="Path_477" data-name="Path 477" d="M604.833,202.171c0-3.282-2.563-5.671-6.448-5.671h-7.514L585.2,217.382h4.745l2.091-7.7h4.117C600.865,209.685,604.833,206.643,604.833,202.171Zm-10.5,5.067h-1.628l2.249-8.291h1.711a3.182,3.182,0,0,1,3.373,3.4C600.03,205.445,597.6,207.238,594.335,207.238Z" transform="translate(-537.014 -191.449)" fill="#0000c9"/>
        <path id="Path_478" data-name="Path 478" d="M761.643,147.4l.529-1.943c.265-1.017.719-2.745,1.339-4.745.653-2.058,1.852-3.34,3.464-3.34.777,0,1.257.355,1.257.951-.033.653-.57,1.042-.57,2.091a2.257,2.257,0,0,0,2.389,2.174,2.994,2.994,0,0,0,3.009-2.984c0-2.538-2.174-4.208-5.489-4.208-4.861,0-8.052,3.1-10.052,10.35l-8.118,29.5H754l7.01-25.569h4.778l-3.141,11.631h4.6L771,147.387h-9.358Z" transform="translate(-687.64 -135.4)" fill="#0000c9"/>
        <path id="Path_479" data-name="Path 479" d="M1001.121,280.6H988.952l-.6,2.3h5.894L985.1,294.529h12.888l.6-2.3h-6.63Z" transform="translate(-903.855 -268.597)" fill="#0000c9"/>
        <path id="Path_480" data-name="Path 480" d="M1333.726,277.7c-1.645,0-3.4,1.066-4.77,3.274l.8-3.034h-4.6l-3.761,13.929h4.6l1.7-6.266c.686-2.563,2.356-5.067,3.464-5.067,1.19,0,.744,2.24,2.8,2.24a2.526,2.526,0,0,0,2.389-2.629A2.471,2.471,0,0,0,1333.726,277.7Z" transform="translate(-1212.354 -265.937)" fill="#0000c9"/>
      </g>
    </g>
  </g>
</svg>
